<mxfile host="app.diagrams.net" modified="2022-05-20T11:55:27.582Z" agent="5.0 (Macintosh)" etag="lvmVcBE2jdvX1jkpxqFU" version="18.0.8" type="github">
  <diagram id="hQjCKNv9yvMzg68qHR8o" name="Page-1">
    <mxGraphModel dx="1426" dy="767" grid="1" gridSize="10" guides="1" tooltips="1" connect="1" arrows="1" fold="1" page="1" pageScale="1" pageWidth="827" pageHeight="1169" math="0" shadow="0">
      <root>
        <mxCell id="0" />
        <mxCell id="1" parent="0" />
        <mxCell id="1FWNOVVQnE253fqMpigN-1" value="&lt;div&gt;GoCD&lt;br&gt;&lt;/div&gt;" style="rounded=0;whiteSpace=wrap;html=1;fillColor=#f8cecc;strokeColor=#b85450;enumerate=0;treeFolding=0;" parent="1" vertex="1">
          <mxGeometry x="210" y="240" width="80" height="30" as="geometry" />
        </mxCell>
        <mxCell id="1FWNOVVQnE253fqMpigN-2" value="GKE" style="rounded=0;whiteSpace=wrap;html=1;fillColor=#d5e8d4;strokeColor=#82b366;enumerate=0;treeFolding=0;" parent="1" vertex="1">
          <mxGeometry x="90" y="140" width="200" height="30" as="geometry" />
        </mxCell>
        <mxCell id="1FWNOVVQnE253fqMpigN-3" value="&lt;div&gt;Shippr&lt;/div&gt;" style="rounded=0;whiteSpace=wrap;html=1;fillColor=#ffe6cc;strokeColor=#d79b00;enumerate=0;treeFolding=0;" parent="1" vertex="1">
          <mxGeometry x="90" y="240" width="80" height="30" as="geometry" />
        </mxCell>
        <mxCell id="1FWNOVVQnE253fqMpigN-4" value="GCP" style="rounded=0;whiteSpace=wrap;html=1;fillColor=#dae8fc;strokeColor=#6c8ebf;enumerate=0;treeFolding=0;" parent="1" vertex="1">
          <mxGeometry x="90" y="90" width="200" height="30" as="geometry" />
        </mxCell>
        <mxCell id="1FWNOVVQnE253fqMpigN-5" value="&lt;div&gt;Delivery Platform&lt;/div&gt;" style="rounded=0;whiteSpace=wrap;html=1;fillColor=#fff2cc;strokeColor=#d6b656;enumerate=0;treeFolding=0;" parent="1" vertex="1">
          <mxGeometry x="90" y="190" width="200" height="30" as="geometry" />
        </mxCell>
        <mxCell id="f7dswITFMUtB7JBYpMaf-3" value="Actor" style="shape=umlActor;verticalLabelPosition=bottom;verticalAlign=top;html=1;outlineConnect=0;comic=0;enumerate=0;treeFolding=0;noLabel=1;" vertex="1" parent="1">
          <mxGeometry x="175" y="290" width="30" height="60" as="geometry" />
        </mxCell>
      </root>
    </mxGraphModel>
  </diagram>
</mxfile>
